<?xml version="1.0" standalone="no"?><svg xmlns="http://www.w3.org/2000/svg" viewBox="0 0 1440 320"><path fill="#FF3939" fill-opacity="1" d="M0,160L34.3,181.3C68.6,203,137,245,206,250.7C274.3,256,343,224,411,218.7C480,213,549,235,617,245.3C685.7,256,754,256,823,218.7C891.4,181,960,107,1029,85.3C1097.1,64,1166,96,1234,128C1302.9,160,1371,192,1406,208L1440,224L1440,320L1405.7,320C1371.4,320,1303,320,1234,320C1165.7,320,1097,320,1029,320C960,320,891,320,823,320C754.3,320,686,320,617,320C548.6,320,480,320,411,320C342.9,320,274,320,206,320C137.1,320,69,320,34,320L0,320Z"></path></svg>