<?xml version="1.0" standalone="no"?><svg xmlns="http://www.w3.org/2000/svg" viewBox="0 0 1440 320"><path fill="#FF3939" fill-opacity="1" d="M0,128L34.3,128C68.6,128,137,128,206,149.3C274.3,171,343,213,411,224C480,235,549,213,617,192C685.7,171,754,149,823,165.3C891.4,181,960,235,1029,218.7C1097.1,203,1166,117,1234,106.7C1302.9,96,1371,160,1406,192L1440,224L1440,320L1405.7,320C1371.4,320,1303,320,1234,320C1165.7,320,1097,320,1029,320C960,320,891,320,823,320C754.3,320,686,320,617,320C548.6,320,480,320,411,320C342.9,320,274,320,206,320C137.1,320,69,320,34,320L0,320Z"></path></svg>